<svg width="18" height="19" viewBox="0 0 18 19" fill="none" xmlns="http://www.w3.org/2000/svg">
<path d="M11.0905 8.45451C11.0062 8.33138 10.9744 8.17984 11.0018 8.03321C11.0293 7.88658 11.1139 7.75688 11.2371 7.67263L15.9948 4.41731C16.1179 4.33307 16.2695 4.30118 16.4161 4.32868C16.5627 4.35617 16.6924 4.44079 16.7767 4.56391C16.8609 4.68704 16.8928 4.83858 16.8653 4.98522C16.8378 5.13185 16.7532 5.26155 16.6301 5.34579L11.8724 8.60111C11.8114 8.64285 11.7428 8.67216 11.6705 8.68738C11.5982 8.7026 11.5236 8.70342 11.451 8.68981C11.3784 8.67619 11.3092 8.64841 11.2473 8.60803C11.1855 8.56766 11.1322 8.51549 11.0905 8.45451V8.45451ZM16.7767 14.4361C16.735 14.4971 16.6817 14.5492 16.6198 14.5896C16.5579 14.63 16.4887 14.6578 16.4161 14.6714C16.3435 14.685 16.2689 14.6842 16.1966 14.669C16.1243 14.6537 16.0558 14.6244 15.9948 14.5827L9.56243 10.1816L6.57374 12.2265C6.80327 12.8056 6.81138 13.449 6.59654 14.0338C6.38171 14.6185 5.95897 15.1036 5.4091 15.3964C4.85923 15.6892 4.22077 15.7691 3.6157 15.6209C3.01062 15.4727 2.48134 15.1068 2.12897 14.5931C1.7766 14.0794 1.62584 13.4539 1.7055 12.836C1.78515 12.2182 2.08964 11.6513 2.56078 11.2438C3.03193 10.8362 3.63671 10.6165 4.25958 10.6267C4.88245 10.6368 5.47976 10.8761 5.93739 11.2988L8.56628 9.50002L5.93736 7.70128C5.4818 8.12103 4.88761 8.35831 4.26823 8.36783C3.64885 8.37735 3.04766 8.15844 2.57941 7.7529C2.11116 7.34735 1.80865 6.78357 1.72964 6.16918C1.65062 5.55479 1.80063 4.93281 2.15102 4.42198C2.50142 3.91115 3.02766 3.54725 3.62929 3.39974C4.23093 3.25222 4.86581 3.33143 5.41276 3.62225C5.95971 3.91306 6.38041 4.3951 6.59455 4.97637C6.80869 5.55763 6.80128 6.19739 6.57373 6.77354L16.6301 13.6542C16.7532 13.7385 16.8378 13.8682 16.8653 14.0148C16.8928 14.1614 16.8609 14.313 16.7767 14.4361ZM5.62494 13.1562C5.62495 12.8309 5.51215 12.5156 5.30576 12.2641C5.09937 12.0126 4.81216 11.8405 4.49307 11.777C4.17398 11.7135 3.84275 11.7626 3.55581 11.916C3.26888 12.0694 3.044 12.3175 2.91949 12.618C2.79499 12.9186 2.77855 13.2531 2.87299 13.5644C2.96743 13.8757 3.1669 14.1447 3.43741 14.3255C3.70792 14.5062 4.03274 14.5876 4.35652 14.5557C4.6803 14.5238 4.983 14.3806 5.21306 14.1506C5.34405 14.0203 5.44791 13.8654 5.51861 13.6947C5.58931 13.524 5.62545 13.341 5.62494 13.1562ZM5.21306 6.83808C5.40973 6.64141 5.54366 6.39084 5.59792 6.11806C5.65218 5.84527 5.62433 5.56252 5.5179 5.30556C5.41146 5.0486 5.23122 4.82897 4.99996 4.67445C4.76871 4.51993 4.49682 4.43746 4.21869 4.43746C3.94056 4.43746 3.66868 4.51993 3.43742 4.67445C3.20616 4.82897 3.02592 5.0486 2.91948 5.30556C2.81305 5.56252 2.7852 5.84527 2.83946 6.11806C2.89372 6.39084 3.02766 6.64141 3.22433 6.83808C3.35427 6.96979 3.50909 7.07436 3.67979 7.14574C3.85049 7.21712 4.03367 7.25388 4.21869 7.25388C4.40371 7.25388 4.58689 7.21712 4.75759 7.14574C4.92829 7.07436 5.08311 6.96979 5.21306 6.83808Z" fill="#4163BB"/>
</svg>
