<svg width="0" height="0">
  <symbol id="star" xmlns="http://www.w3.org/2000/svg" width="18" height="18" fill="none">
    <path stroke="#FFD600"
      d="m16.34 7.001.002.005a.674.674 0 0 1-.208.73l-3.18 2.646-.241.2.075.304 1.01 4.084.001.006a.67.67 0 0 1-.256.712l-.002.001a.634.634 0 0 1-.716.022h-.001l-3.547-2.247-.012-.008-.013-.007a.52.52 0 0 0-.54.021l-3.285 2.082a.754.754 0 0 1-.848-.026l-.002-.001a.791.791 0 0 1-.302-.841v-.003l.951-3.738.077-.303-.239-.202-3.195-2.7-.002-.003a.673.673 0 0 1-.208-.729l.001-.005a.651.651 0 0 1 .578-.452l4.153-.27.314-.02.118-.293 1.572-3.923.002-.005a.648.648 0 0 1 .602-.413.648.648 0 0 1 .605.413l.001.004 1.55 3.9.115.293.314.022 4.176.292h.002A.651.651 0 0 1 16.34 7Z" />
  </symbol>
</svg>
