<svg width="0" height="0">
  <symbol id="search" xmlns="http://www.w3.org/2000/svg" fill="none">
    <path stroke="currentColor" stroke-linecap="round" stroke-linejoin="round" stroke-width="2" d="M10.875 18.75a7.875 7.875 0 1 0 0-15.75 7.875 7.875 0 0 0 0 15.75ZM16.443 16.444 21 21" />
  </symbol>
  <symbol id="sign-in" xmlns="http://www.w3.org/2000/svg" fill="none">
    <path stroke="currentColor" stroke-linecap="round" stroke-linejoin="round" stroke-width="2" d="M8.813 15.938 12.75 12 8.813 8.062M2.25 12h10.497M12.75 3.75H18a.75.75 0 0 1 .75.75v15a.75.75 0 0 1-.75.75h-5.25" />
  </symbol>
  <symbol id="sign-up" xmlns="http://www.w3.org/2000/svg" fill="none">
    <path stroke="currentColor" stroke-miterlimit="10" stroke-width="2" d="M12 15a6 6 0 1 0 0-12 6 6 0 0 0 0 12Z" />
    <path stroke="currentColor" stroke-linecap="round" stroke-linejoin="round" stroke-width="2" d="M2.905 20.25a10.504 10.504 0 0 1 18.19 0" />
  </symbol>
  <symbol id="star" fill="currentColor" xmlns="http://www.w3.org/2000/svg">
    <path d="m16.34 7.001.002.005a.674.674 0 0 1-.208.73l-3.18 2.646-.241.2.075.304 1.01 4.084.001.006a.67.67 0 0 1-.256.712l-.002.001a.634.634 0 0 1-.716.022h-.001l-3.547-2.247-.012-.008-.013-.007a.52.52 0 0 0-.54.021l-3.285 2.082a.754.754 0 0 1-.848-.026l-.002-.001a.791.791 0 0 1-.302-.841v-.003l.951-3.738.077-.303-.239-.202-3.195-2.7-.002-.003a.673.673 0 0 1-.208-.729l.001-.005a.651.651 0 0 1 .578-.452l4.153-.27.314-.02.118-.293 1.572-3.923.002-.005a.648.648 0 0 1 .602-.413.648.648 0 0 1 .605.413l.001.004 1.55 3.9.115.293.314.022 4.176.292h.002A.651.651 0 0 1 16.34 7Z" stroke="#ffd600" />
  </symbol>
  <symbol id="close" fill="none" stroke="currentColor" xmlns="http://www.w3.org/2000/svg">
    <path d="M18.75 5.25L5.25 18.75" stroke-width="2" stroke-linecap="round" stroke-linejoin="round"/>
    <path d="M18.75 18.75L5.25 5.25" stroke-width="2" stroke-linecap="round" stroke-linejoin="round"/>
  </symbol>
</svg>
