<svg width="18" height="18" viewBox="0 0 18 18" fill="none" xmlns="http://www.w3.org/2000/svg">
<path d="M16.3401 7.00096L16.34 7.00097L16.3419 7.00646C16.3844 7.13476 16.3872 7.27289 16.3502 7.40285C16.3131 7.53278 16.2377 7.64854 16.1339 7.73506C16.1339 7.73508 16.1339 7.7351 16.1338 7.73512L12.9535 10.3821L12.7128 10.5824L12.788 10.8864L13.7976 14.97L13.7976 14.97L13.7991 14.9758C13.8331 15.1065 13.8268 15.2444 13.7811 15.3714C13.7354 15.4985 13.6524 15.6088 13.543 15.6879L13.5412 15.6892C13.4379 15.7645 13.3144 15.8069 13.1866 15.8109C13.0589 15.8148 12.9329 15.7801 12.8252 15.7113L12.8236 15.7103L9.27718 13.4636L9.26501 13.4559L9.25241 13.4489C9.20104 13.4203 9.09336 13.3713 8.95079 13.3849C8.83541 13.3959 8.75188 13.4438 8.71258 13.4704L5.42744 15.5515L5.4266 15.5521C5.29892 15.6333 5.14975 15.6742 4.99849 15.6695C4.84724 15.6648 4.7009 15.6147 4.57853 15.5256L4.57737 15.5248C4.44813 15.4313 4.35012 15.301 4.29617 15.151C4.24221 15.0009 4.23483 14.838 4.27499 14.6837L4.27567 14.681L5.22599 10.9429L5.30306 10.6397L5.06418 10.4378L1.86935 7.73737L1.86936 7.73736L1.86667 7.73512C1.76284 7.64859 1.68746 7.53281 1.65036 7.40285C1.61326 7.27289 1.61615 7.13476 1.65866 7.00647L1.65869 7.00648L1.66045 7.00096C1.70017 6.87625 1.77656 6.76641 1.87965 6.68577C1.98274 6.60512 2.10774 6.55743 2.23835 6.5489L6.391 6.27919L6.70549 6.25876L6.82272 5.96623L8.39486 2.04301L8.39488 2.04302L8.39682 2.03805C8.44402 1.91651 8.5268 1.81205 8.63432 1.73832C8.74174 1.66466 8.86887 1.6251 8.99911 1.62479H8.99962C8.99965 1.62479 8.99968 1.62479 8.99971 1.62479C9.1303 1.62483 9.25784 1.66431 9.36562 1.73806C9.47342 1.81183 9.55642 1.91644 9.60375 2.03819L9.60374 2.03819L9.60508 2.04157L11.1542 5.94227L11.2702 6.23455L11.5839 6.2565L15.7598 6.54874L15.7622 6.5489C15.8928 6.55743 16.0178 6.60512 16.1209 6.68577C16.2239 6.76641 16.3003 6.87625 16.3401 7.00096Z" stroke="#FFD600"/>
</svg>
